<svg id="K-Koch-RGB-wht" xmlns="http://www.w3.org/2000/svg" width="163.935" height="24" viewBox="0 0 163.935 24">
  <path id="Path_30" data-name="Path 30" d="M141.767,54.655l10.044-10.6h-9.379l-9.2,8.5v-8.5H124.41V68.028h8.817v-5.15l1.853-1.635,5.515,6.774h11.929L141.767,54.655" transform="translate(-84.023 -44.028)" fill="#fff"/>
  <path id="Path_31" data-name="Path 31" d="M254.461,0V8.567l-7.629-.011L246.821,0H237.78V23.946l9.1-.005v-8.7h7.51v8.7l9.33.005V0Z" transform="translate(-108.221)" fill="#fff"/>
  <path id="Path_32" data-name="Path 32" d="M194.513,51.358v9.6a1.684,1.684,0,0,1-1.586,1.771h-5.09a1.684,1.684,0,0,1-1.58-1.771v-9.6a1.689,1.689,0,0,1,1.58-1.777h5.09a1.684,1.684,0,0,1,1.575,1.777m3.668-7.3h-15.6c-2.926,0-5.3,2.687-5.3,5.995V61.968c0,3.308,2.376,5.995,5.3,5.995H198.2c2.926,0,5.308-2.687,5.308-5.995V50.045c0-3.3-2.381-5.995-5.308-5.995" transform="translate(-108.077 -44.028)" fill="#fff"/>
  <path id="Path_33" data-name="Path 33" d="M258.632,52.747v-1.82a8.038,8.038,0,0,0-2.049-5.608,3.858,3.858,0,0,0-2.725-1.259H237.509c-2.632,0-4.779,3.079-4.779,6.866v10.2c0,3.782,2.147,6.861,4.779,6.861h16.349c2.638,0,4.779-3.079,4.779-6.861V58.36h-8.583l-.2,2.294c-.1.981-.758,2.033-1.58,2.033h-5a1.662,1.662,0,0,1-1.58-1.728V51.411a1.662,1.662,0,0,1,1.58-1.728h5a1.662,1.662,0,0,1,1.58,1.728v1.335Z" transform="translate(-133.313 -44.033)" fill="#fff"/>
  <path id="Path_34" data-name="Path 34" d="M339.16,82.212v.545h1v2.578h.616v-2.6H341.8V82.19Zm5.646,0-.8,2.223-.8-2.223h-.872v3.1h.545v-2.5l.866,2.5h.5l.856-2.5v2.5h.572v-3.1Z" transform="translate(-181.743 -61.383)" fill="#fff"/>
  <path id="Path_35" data-name="Path 35" d="M66.1,44.07H50.3V68.01H65.984s-3.711-11.864-3.728-11.924S66.1,44.07,66.1,44.07Z" transform="translate(-50.3 -44.037)" fill="#fff" fill-rule="evenodd"/>
  <path id="Path_36" data-name="Path 36" d="M33.3.07,26.1,12.048,33.3,24H44.405V.07Z" transform="translate(-11.898 -0.032)" fill="#fff" fill-rule="evenodd"/>
</svg>
