<svg xmlns="http://www.w3.org/2000/svg" width="219.959" height="257.675" viewBox="0 0 219.959 257.675">
  <g id="Group_104" data-name="Group 104" transform="translate(-600.201 -216)">
    <path id="Path_567" data-name="Path 567" d="M349.455,474.69v25.02a8.593,8.593,0,0,1-8.568,8.568h-8.568a8.593,8.593,0,0,1-8.568-8.568V474.69a21.247,21.247,0,0,0,25.7,0Z" transform="translate(373.579 -34.603)" fill="#c7ae86"/>
    <path id="Path_568" data-name="Path 568" d="M379.807,235.02a4.284,4.284,0,0,1-4.284,4.284H358.386A17.154,17.154,0,0,0,341.25,256.44v29.989h8.568v-25.7a12.864,12.864,0,0,1,12.852-12.852h12.852a4.284,4.284,0,0,1,4.284,4.284v1L390.54,243.5l-10.733-9.662Z" transform="translate(364.647 88.324)" fill="#c7ae86"/>
    <path id="Path_569" data-name="Path 569" d="M304.136,220.238a16.988,16.988,0,0,0-13.906-7.176H273.093a4.284,4.284,0,0,1-4.284-4.284V207.6l-10.733,9.66,10.733,9.66v-1.008a4.284,4.284,0,0,1,4.284-4.284h12.852a12.788,12.788,0,0,1,10.163,5.076,25.892,25.892,0,0,1,8.027-6.468Z" transform="translate(407.098 101.716)" fill="#c7ae86"/>
    <path id="Path_570" data-name="Path 570" d="M344.214,174.276V150.6a4.284,4.284,0,0,1,4.284-4.284h1.092l-9.66-10.731-9.66,10.731h1.092a4.284,4.284,0,0,1,4.284,4.284v18.636a25.412,25.412,0,0,1,8.568,5.042Z" transform="translate(370.251 138.473)" fill="#c7ae86"/>
    <path id="Path_571" data-name="Path 571" d="M345.538,159.427,274.114,88a4.283,4.283,0,0,0-6.057,0l-71.425,71.425a4.283,4.283,0,0,0,0,6.057l71.425,71.425a4.3,4.3,0,0,0,6.059,0l71.425-71.425h0a4.283,4.283,0,0,0,0-6.057ZM325.361,171.61,303.94,190.888h0a4.284,4.284,0,0,1-7.149-3.182v-6.34h-8.568a4.287,4.287,0,0,0-4.284,4.284v29.989a4.284,4.284,0,0,1-4.284,4.284H262.517a4.284,4.284,0,0,1-4.284-4.284V172.8a4.287,4.287,0,0,0-4.284-4.284H245.38v6.34a4.284,4.284,0,0,1-7.149,3.184l-21.421-19.278a4.286,4.286,0,0,1,0-6.369l21.421-19.278a4.284,4.284,0,0,1,7.149,3.186v6.51h12.852V129.956h-6.426a4.284,4.284,0,0,1-3.184-7.149L267.9,101.387a4.417,4.417,0,0,1,6.369,0l19.278,21.421a4.284,4.284,0,0,1-3.184,7.149h-6.426v25.7h12.852v-6.512a4.284,4.284,0,0,1,7.149-3.184l21.421,19.278a4.282,4.282,0,0,1,0,6.369Z" transform="translate(439.098 163.399)" fill="#c7ae86"/>
    <path id="Path_572" data-name="Path 572" d="M341.569,117.775,244.439,20.646a13.165,13.165,0,0,0-18.175,0l-97.129,97.129a12.852,12.852,0,0,0,0,18.175l97.129,97.129a12.869,12.869,0,0,0,18.173,0l97.129-97.129h0a12.854,12.854,0,0,0,0-18.175Zm-25.7,18.175h0l-71.425,71.425a12.869,12.869,0,0,1-18.173,0L154.842,135.95a12.852,12.852,0,0,1,0-18.175l71.425-71.425a13.165,13.165,0,0,1,18.175,0l71.425,71.425a12.855,12.855,0,0,1,0,18.175Z" transform="translate(474.829 198.994)" fill="#c7ae86"/>
  </g>
</svg>
