<svg xmlns="http://www.w3.org/2000/svg" width="569.001" height="299.001" viewBox="0 0 569.001 299.001">
  <path id="Subtraction_2" data-name="Subtraction 2" d="M569,299H0V0H569V299h0ZM206.647,225.643l0,1.936h68.657v-1.786L262.2,204.049V77.761h7.892a47.518,47.518,0,0,1,15.415,2.216,22.537,22.537,0,0,1,10.051,6.571c4.942,5.838,7.447,14.507,7.447,25.765a66.828,66.828,0,0,1-1.694,15.767,37.465,37.465,0,0,1-5.157,12.083,21.821,21.821,0,0,1-8.955,7.708,30.84,30.84,0,0,1-13.087,2.569H268.9v6.4h3.875c.931,0,1.753-.048,2.477-.089h.024l.045,0c.513-.03.956-.055,1.326-.055l33.361,70.743H367.8v-1.638l-18.765-18.468-28.894-47.36c-11.229-1.123-19.463-2.5-25.914-4.319V154.9c15.538-1.776,28.566-6.235,38.723-13.255a37.047,37.047,0,0,0,6.732-5.837,32.174,32.174,0,0,0,4.791-7.009,34.434,34.434,0,0,0,2.865-8.182,44.166,44.166,0,0,0,.952-9.355,32.8,32.8,0,0,0-7.3-21,38.434,38.434,0,0,0-9.159-7.931,59.6,59.6,0,0,0-12.734-5.92,90.883,90.883,0,0,0-16.252-3.686A143.792,143.792,0,0,0,283.349,71.5H206.5v1.489l13.255,21.744V203.9L206.5,225.644Zm279.324-75.9v0a19.012,19.012,0,0,1-1.043,4.167,10.351,10.351,0,0,1-1.936,3.574,13.416,13.416,0,0,1-2.979,2.831,16.492,16.492,0,0,1-4.021,1.786l.745,1.043a16.644,16.644,0,0,0,5.213-1.786,14.111,14.111,0,0,0,4.171-3.723,20.359,20.359,0,0,0,2.83-5.362,18.26,18.26,0,0,0,1.043-6.553,19.23,19.23,0,0,0-.447-4.319,9.59,9.59,0,0,0-1.638-3.276,7.32,7.32,0,0,0-2.68-2.085,9.922,9.922,0,0,0-3.779-.745h-.094c-.137-.006-.276-.009-.414-.009a9.267,9.267,0,0,0-3.308.609,8.41,8.41,0,0,0-2.681,1.787,8.064,8.064,0,0,0-1.638,2.681,8.69,8.69,0,0,0-.6,3.424,12.035,12.035,0,0,0,.6,3.723,6.842,6.842,0,0,0,1.637,2.383,7.074,7.074,0,0,0,2.532,1.489,9.89,9.89,0,0,0,2.951.449l.177,0c.15.01.3.015.453.015a6.745,6.745,0,0,0,2.823-.616,6.676,6.676,0,0,0,2.082-1.486Zm-22.34,0v0a19.06,19.06,0,0,1-1.043,4.167,10.351,10.351,0,0,1-1.936,3.574,13.44,13.44,0,0,1-2.979,2.831,16.486,16.486,0,0,1-4.021,1.786l.745,1.043a16.643,16.643,0,0,0,5.213-1.786,14.11,14.11,0,0,0,4.171-3.723,20.386,20.386,0,0,0,2.83-5.362,18.277,18.277,0,0,0,1.043-6.553,19.273,19.273,0,0,0-.447-4.319,9.6,9.6,0,0,0-1.638-3.276,7.315,7.315,0,0,0-2.681-2.085,9.913,9.913,0,0,0-3.778-.745h-.094c-.137-.006-.276-.009-.414-.009a9.269,9.269,0,0,0-3.309.609,8.408,8.408,0,0,0-2.68,1.787,6.234,6.234,0,0,0-1.638,2.681,8.69,8.69,0,0,0-.6,3.424,11.982,11.982,0,0,0,.6,3.723,6.755,6.755,0,0,0,1.635,2.383,7.08,7.08,0,0,0,2.533,1.489,9.887,9.887,0,0,0,2.95.449l.177,0c.151.01.3.015.455.015a6.821,6.821,0,0,0,2.822-.616,6.668,6.668,0,0,0,2.083-1.486ZM87.013,153.617a4.477,4.477,0,0,0-.157.817,7.172,7.172,0,0,1-.142.821,7.5,7.5,0,0,0-.159.977c-.036.3-.072.612-.142.959a10.305,10.305,0,0,0-.3,1.936,7.33,7.33,0,0,0-.149,1.638,7.615,7.615,0,0,0,2.681,1.192,13.155,13.155,0,0,0,3.947.6c.123,0,.249,0,.373-.005a15.093,15.093,0,0,0,3.872-.6,7.93,7.93,0,0,0,2.979-1.489,7.129,7.129,0,0,0,1.787-2.382,6.95,6.95,0,0,0,.6-3.128,6.334,6.334,0,0,0-.895-3.574A12.029,12.029,0,0,0,98.925,149L95.8,147.212a30.236,30.236,0,0,1-3.128-1.638,10.392,10.392,0,0,1-2.382-1.937,4.135,4.135,0,0,1,3.24-6.7c.06,0,.123,0,.185,0,.122,0,.246-.006.369-.006a11.264,11.264,0,0,1,1.865.155,15.272,15.272,0,0,1,1.787.446l1.489,5.213h1.041a4.335,4.335,0,0,0,.16-.75,7.5,7.5,0,0,1,.14-.739,7.381,7.381,0,0,0,.152-.9,7.591,7.591,0,0,1,.149-.89,7.467,7.467,0,0,0,.3-1.786,5.607,5.607,0,0,0,.149-1.49,18.654,18.654,0,0,0-2.979-.894,39.562,39.562,0,0,0-4.319-.3h-.085a11.615,11.615,0,0,0-3.191.447,6.835,6.835,0,0,0-2.533,1.34,7.217,7.217,0,0,0-1.638,2.085,5.677,5.677,0,0,0-.6,2.83,7.257,7.257,0,0,0,.891,3.726,12.954,12.954,0,0,0,2.382,2.533,19.79,19.79,0,0,0,2.979,1.786c.41.234.822.445,1.221.65a17.4,17.4,0,0,1,1.758.988,5.935,5.935,0,0,1,2.383,1.787,3.523,3.523,0,0,1,.895,2.532,4.8,4.8,0,0,1-.447,2.085,5.827,5.827,0,0,1-1.191,1.489,5,5,0,0,1-1.787.895,10.177,10.177,0,0,1-2.234.3l-.163,0a7.268,7.268,0,0,1-2.07-.3,3.228,3.228,0,0,1-1.192-.745l-1.335-5.811ZM502.35,138.872v0l-.148,2.232v18.759c-.29.074-.619.185-.938.292-.339.114-.689.231-1,.308a10.389,10.389,0,0,0-1.936.745V162.4h11.021v-1.183a10.4,10.4,0,0,0-1.936-.745,9.623,9.623,0,0,0-1.936-.6V135h-.895a16.922,16.922,0,0,1-3.425,2.238,36.6,36.6,0,0,1-3.574,1.489l.148.894c.143.005.294.008.448.008a12.041,12.041,0,0,0,1.935-.157,12.493,12.493,0,0,0,2.232-.6Zm-67.019,0v0l-.149,2.232v18.759c-.289.074-.617.184-.935.291-.341.114-.692.232-1,.309a10.362,10.362,0,0,0-1.936.745V162.4h11.021v-1.183a10.366,10.366,0,0,0-1.936-.745,9.638,9.638,0,0,0-1.936-.6V135h-.894a16.949,16.949,0,0,1-3.426,2.238,36.474,36.474,0,0,1-3.574,1.489l.149.894c.143.005.294.008.448.008a12.037,12.037,0,0,0,1.935-.157,12.486,12.486,0,0,0,2.233-.6Zm-325.09-1.784h5.808v22.783l-1.787.447c-.161.055-.34.129-.531.207a8.128,8.128,0,0,1-1.107.392v1.192H123.05v-1.187a5.321,5.321,0,0,0-1.638-.6c-.3-.1-.748-.2-1.178-.3l-.009,0c-.2-.047-.409-.095-.6-.142V137.088h5.807l2.084,5.51h1.044a7.23,7.23,0,0,1,.075-.893,7.235,7.235,0,0,0,.075-.894,7.3,7.3,0,0,1,.068-.857,8.831,8.831,0,0,0,.081-1.079,8.528,8.528,0,0,0,.148-1.936v-1.786H106.816v1.786a7.864,7.864,0,0,1,.149,1.936,9.188,9.188,0,0,0,.074.965,9.238,9.238,0,0,1,.074.971,6.15,6.15,0,0,0,.149,1.787h.894l2.085-5.509ZM60.5,135.3v1.038a7.244,7.244,0,0,0,1.638.6c.553.136,1.18.294,1.638.447v22.636a9.577,9.577,0,0,0-3.127.894v1.192H79.563a12.029,12.029,0,0,0,0-3.276c-.133-1.083-.271-2.05-.4-2.985l-.041-.291h-.895l-1.936,4.617H67.35V149.449h6.26l1.489,2.979h.895a67.631,67.631,0,0,0,0-7.744H75.1l-1.494,2.83H67.35V137.387h8.34l1.638,4.17h1.041a22.309,22.309,0,0,0,.3-3.127c0-.522.038-1.052.074-1.564s.074-1.041.074-1.564Zm421.364,14.306c-.121,0-.242,0-.361-.011h-.072a4.785,4.785,0,0,1-2.014-.448,3.627,3.627,0,0,1-1.638-1.34,8.027,8.027,0,0,1-1.043-1.936,11.478,11.478,0,0,1-.3-2.234,8.087,8.087,0,0,1,1.192-4.919,4.251,4.251,0,0,1,3.46-1.788h.113c.072,0,.145-.007.216-.007a3.514,3.514,0,0,1,2.167.751,6.668,6.668,0,0,1,1.638,1.937,7.285,7.285,0,0,1,.894,2.532,20.378,20.378,0,0,1,.3,2.83v1.192a3.958,3.958,0,0,1-.086.709,2.9,2.9,0,0,0-.064.482,4.743,4.743,0,0,1-1.786,1.638A5.945,5.945,0,0,1,481.864,149.606Zm-22.34,0c-.121,0-.242,0-.361-.011a5.232,5.232,0,0,1-2.084-.447,3.626,3.626,0,0,1-1.638-1.34,8.025,8.025,0,0,1-1.043-1.936,11.478,11.478,0,0,1-.3-2.234,9.2,9.2,0,0,1,1.192-4.919,4.251,4.251,0,0,1,3.461-1.788l.105,0h.008c.072,0,.145-.007.216-.007a3.515,3.515,0,0,1,2.167.751,6.67,6.67,0,0,1,1.638,1.937,7.3,7.3,0,0,1,.894,2.532,20.258,20.258,0,0,1,.3,2.83v1.192a3.991,3.991,0,0,1-.085.71,2.913,2.913,0,0,0-.063.481,4.741,4.741,0,0,1-1.787,1.638A5.94,5.94,0,0,1,459.523,149.606Z" fill="#fff"/>
</svg>
