y<svg xmlns="http://www.w3.org/2000/svg" width="569" height="299.001" viewBox="0 0 569 299.001">
  <path id="Subtraction_1" data-name="Subtraction 1" d="M569.5,299.5H.5V.5h569v299ZM207.148,226.144v1.936h68.656v-1.786L262.7,204.549V78.261h7.892a47.533,47.533,0,0,1,15.415,2.215,22.538,22.538,0,0,1,10.051,6.571c4.942,5.839,7.448,14.507,7.448,25.765a66.833,66.833,0,0,1-1.694,15.768,37.474,37.474,0,0,1-5.157,12.082,21.819,21.819,0,0,1-8.955,7.707,30.839,30.839,0,0,1-13.087,2.569H269.4v6.4h3.875c.941,0,1.77-.048,2.5-.091.533-.031.991-.058,1.371-.058l33.361,70.743H368.3V226.3l-18.765-18.468-28.894-47.36c-11.228-1.123-19.462-2.5-25.914-4.319V155.4c15.539-1.776,28.566-6.235,38.723-13.255a37.021,37.021,0,0,0,6.732-5.836,32.217,32.217,0,0,0,4.791-7.009,34.457,34.457,0,0,0,2.865-8.182,44.185,44.185,0,0,0,.952-9.355,32.8,32.8,0,0,0-7.3-21,38.426,38.426,0,0,0-9.159-7.931,59.6,59.6,0,0,0-12.734-5.92,90.9,90.9,0,0,0-16.252-3.686A143.806,143.806,0,0,0,283.849,72H207v1.489l13.255,21.744V204.4L207,226.145Z" transform="translate(-0.5 -0.5)" fill="#fff"/>
</svg>
